<?xml version="1.0" encoding="UTF-8" standalone="no"?>
<svg
   xmlns:dc="http://purl.org/dc/elements/1.1/"
   xmlns:cc="http://creativecommons.org/ns#"
   xmlns:rdf="http://www.w3.org/1999/02/22-rdf-syntax-ns#"
   xmlns:svg="http://www.w3.org/2000/svg"
   xmlns="http://www.w3.org/2000/svg"
   xmlns:sodipodi="http://sodipodi.sourceforge.net/DTD/sodipodi-0.dtd"
   xmlns:inkscape="http://www.inkscape.org/namespaces/inkscape"
   width="180"
   height="36"
   viewBox="0 0 180 36"
   version="1.1"
   id="svg11"
   sodipodi:docname="logo_footer.svg"
   inkscape:version="0.92.4 (5da689c313, 2019-01-14)">
  <metadata
     id="metadata15">
    <rdf:RDF>
      <cc:Work
         rdf:about="">
        <dc:format>image/svg+xml</dc:format>
        <dc:type
           rdf:resource="http://purl.org/dc/dcmitype/StillImage" />
        <dc:title>logo_l</dc:title>
      </cc:Work>
    </rdf:RDF>
  </metadata>
  <sodipodi:namedview
     pagecolor="#ffffff"
     bordercolor="#666666"
     borderopacity="1"
     objecttolerance="10"
     gridtolerance="10"
     guidetolerance="10"
     inkscape:pageopacity="0"
     inkscape:pageshadow="2"
     inkscape:window-width="1920"
     inkscape:window-height="986"
     id="namedview13"
     showgrid="false"
     inkscape:zoom="2.4855967"
     inkscape:cx="-35.403975"
     inkscape:cy="24"
     inkscape:window-x="-11"
     inkscape:window-y="-11"
     inkscape:window-maximized="1"
     inkscape:current-layer="svg11" />
  <!-- Generator: Sketch 40.3 (33839) - http://www.bohemiancoding.com/sketch -->
  <title
     id="title2">logo_l</title>
  <desc
     id="desc4">Created with Sketch.</desc>
  <defs
     id="defs6" />
  <g
     id="Welcome"
     transform="matrix(0.707178,0,0,0.72278594,3.7297907,1.3057211)"
     style="fill:none;fill-rule:evenodd;stroke:none;stroke-width:1">
    <g
       id="Artboard"
       transform="translate(-794,-98)"
       style="fill:#3d1101">
      <path
         d="m 806.671,121.89 c -2.94,6.664 -7.889,14.063 -12.299,18.473 2.009,1.127 5.586,3.479 7.252,4.851 4.165,-5.096 9.555,-13.377 13.132,-20.727 z m 13.475,3.038 c 3.92,6.37 9.555,14.847 11.956,20.041 l 7.644,-4.165 c -2.842,-5.194 -8.869,-13.328 -12.691,-19.208 z m -2.401,-13.867 5.978,-2.205 c -1.078,-2.646 -3.332,-6.762 -4.9,-9.751 l -7.546,2.548 c 1.372,2.94 3.185,6.762 4.116,9.408 h -20.335 v 7.448 h 45.031 v -7.448 z m 53.655,18.081 v -3.381 h 7.546 v 3.381 z m -6.762,-3.381 v 3.381 h -7.35 c 0.147,-1.127 0.245,-2.303 0.294,-3.381 z m 3.087,-18.277 c -0.539,0.98 -1.176,1.96 -1.764,2.842 h -8.722 c 0.784,-0.931 1.47,-1.862 2.156,-2.842 z m -10.094,9.016 h 7.007 v 3.332 h -7.007 z m 21.315,3.332 H 871.4 V 116.5 h 7.546 z m 7.056,-9.506 h -12.299 c 1.421,-1.96 2.744,-3.969 3.773,-5.684 l -4.851,-3.234 -1.127,0.294 h -8.526 c 0.245,-0.49 0.539,-1.029 0.784,-1.519 l -7.595,-1.372 c -2.205,4.851 -6.174,10.241 -12.299,14.259 1.617,1.078 3.969,3.577 5.047,5.243 0.637,-0.49 1.225,-0.931 1.813,-1.421 v 6.468 c 0,5.88 -0.588,12.887 -7.693,17.591 1.421,0.98 4.067,3.626 5.047,4.998 4.116,-2.744 6.517,-6.615 7.889,-10.731 h 22.981 v 2.646 c 0,0.931 -0.392,1.225 -1.47,1.225 -1.078,0 -5.292,0.049 -8.379,-0.147 1.029,1.764 2.303,4.851 2.646,6.811 4.851,0 8.33,-0.098 10.878,-1.176 2.499,-1.078 3.381,-2.94 3.381,-6.566 z m 31.36,2.352 h -4.116 v -4.312 h 4.116 z m 11.662,6.517 v 5.635 c -0.196,0.049 -0.441,0.098 -0.833,0.098 h -2.744 c -1.225,0 -1.372,-0.147 -1.372,-1.96 v -3.773 z m -26.607,17.101 v -6.223 c 0.784,0.882 1.47,1.813 1.862,2.45 6.762,-2.891 8.624,-8.232 8.918,-13.328 h 4.165 v 3.822 c 0,6.517 1.176,8.526 6.909,8.526 h 4.655 0.098 v 4.753 z m 4.459,-17.101 c -0.245,2.695 -1.127,5.194 -4.459,7.203 v -7.203 z m 30.821,-10.829 v -6.86 h -44.59 v 6.86 h 13.818 v 4.312 h -11.417 v 32.781 h 6.909 v -2.646 h 26.607 v 2.646 h 7.252 v -32.781 h -12.201 v -4.312 z m 18.13,1.323 c -1.078,1.127 -2.303,2.156 -3.724,3.136 -0.833,-0.686 -1.96,-1.519 -2.989,-2.107 0.343,-0.343 0.686,-0.686 1.029,-1.029 z m 4.067,-3.92 -1.029,0.245 h -2.352 v -1.127 h 7.693 v -4.067 h -7.693 v -1.715 h -5.929 v 6.468 l -2.891,-0.539 c -1.421,1.96 -3.773,4.116 -6.958,5.733 1.127,0.735 2.793,2.499 3.577,3.675 0.49,-0.294 0.931,-0.588 1.372,-0.931 0.735,0.539 1.568,1.176 2.254,1.764 -1.96,0.931 -4.018,1.715 -6.027,2.254 1.127,1.029 2.646,2.989 3.381,4.263 7.546,-2.499 14.896,-7.007 18.473,-13.965 z m -6.37,19.6 c 1.666,-0.735 3.283,-1.568 4.851,-2.45 v 1.813 h 12.152 v -1.666 c 1.617,0.833 3.332,1.568 5.047,2.303 z m 24.157,11.172 c -0.539,0.49 -1.078,0.931 -1.617,1.372 -1.323,-0.49 -2.695,-0.931 -4.067,-1.372 z m -20.286,2.548 v -2.548 h 7.595 l -1.666,1.911 0.49,0.147 z m 0,-6.958 h 14.798 v 0.931 h -14.798 z m 0,-3.234 h 14.798 v 0.833 h -14.798 z m 3.332,-7.399 c 1.127,-0.686 2.205,-1.47 3.234,-2.254 1.127,0.784 2.352,1.519 3.626,2.254 z m 16.17,-16.219 c -0.686,0.882 -1.47,1.715 -2.401,2.499 -1.862,-0.931 -3.773,-1.764 -5.488,-2.499 z m 9.163,9.408 c -1.568,-1.274 -3.773,-2.695 -6.174,-4.067 2.254,-2.352 4.018,-5.243 5.194,-8.673 l -3.871,-1.568 -1.078,0.196 H 965.48 v 4.704 h 3.185 l -3.822,3.724 c 1.421,0.637 2.891,1.323 4.41,2.107 -0.98,0.441 -2.009,0.833 -3.038,1.127 0.343,0.343 0.686,0.784 1.078,1.225 l -3.136,-1.617 c -4.949,5.537 -14.406,9.653 -23.03,11.858 1.372,1.372 2.891,3.479 3.626,4.998 1.96,-0.637 3.92,-1.323 5.88,-2.107 v 11.074 c 0,1.911 -0.735,2.695 -1.617,3.136 0.784,0.931 1.764,3.381 2.009,4.753 1.323,-0.588 3.381,-0.98 15.19,-2.107 -0.098,-1.029 -0.049,-2.695 0.049,-4.116 5.831,1.862 12.495,4.557 16.023,6.664 l 3.332,-4.018 c -1.225,-0.686 -2.793,-1.421 -4.508,-2.107 1.421,-1.029 2.891,-2.107 4.312,-3.185 l -4.851,-3.038 c -0.49,0.539 -1.029,1.127 -1.666,1.715 v -8.673 c 1.862,0.686 3.675,1.225 5.39,1.715 0.833,-1.47 2.597,-3.822 3.871,-4.998 -6.958,-1.47 -15.288,-4.312 -20.433,-7.301 0.245,-0.294 0.539,-0.588 0.833,-0.882 0.441,0.686 0.833,1.323 1.078,1.862 1.96,-0.735 3.773,-1.617 5.488,-2.646 2.695,1.617 5.047,3.234 6.615,4.606 z m 20.335,9.065 v -1.274 h 2.548 v 1.176 z m 2.548,-10.241 v 1.127 h -2.548 v -1.127 z m -2.548,4.41 h 2.548 v 1.274 h -2.548 z m 7.693,-4.41 h 1.568 v -4.263 h -15.484 v 4.263 h 1.372 v 10.437 l -2.009,0.049 0.343,4.753 c 2.744,-0.196 5.831,-0.392 9.065,-0.588 v 4.41 l -2.107,-3.969 c -2.107,0.539 -5.243,0.931 -7.987,1.078 0.49,-4.508 0.588,-8.918 0.588,-12.495 v -9.604 h 36.652 v -5.39 h -17.934 c -0.637,-1.323 -1.568,-2.744 -2.499,-3.871 l -6.125,2.352 c 0.343,0.49 0.686,0.98 0.98,1.519 h -17.444 v 15.043 c 0,7.252 -0.196,17.64 -3.381,24.647 1.421,0.637 4.263,2.695 5.39,3.871 1.96,-4.067 3.038,-9.457 3.675,-14.798 0.294,0.882 0.539,1.862 0.637,2.548 0.735,0.049 1.568,0.049 2.401,0.049 v 1.274 h -2.254 v 3.626 h 2.254 v 1.666 l -3.675,0.196 0.441,4.263 c 3.038,-0.245 6.321,-0.539 9.751,-0.882 l -0.098,-3.969 -2.156,0.147 v -1.421 h 2.107 v -3.626 h -2.107 v -1.617 c 1.029,-0.098 2.009,-0.245 2.891,-0.441 v 12.838 h 5.145 v -2.891 l 3.332,1.519 c 1.372,-2.107 1.911,-5.439 2.205,-8.575 l -4.361,-1.225 c -0.147,2.009 -0.539,4.067 -1.176,5.831 z m 15.582,6.419 h 1.323 v 2.401 h -1.323 z m -3.479,2.401 h -1.274 v -2.401 h 1.274 z m -4.753,0 h -1.225 v -2.401 h 1.225 z m 14.014,-7.595 v -4.704 h -7.056 v -1.764 h -5.929 v 1.764 h -6.468 v 4.704 h 6.468 v 1.421 h -6.272 v 9.996 h 19.012 v -9.996 h -6.811 v -1.421 z m -10.241,26.313 c -0.588,0 -0.686,-0.098 -0.686,-1.127 v -3.969 c 0.588,0.784 1.078,1.568 1.372,2.205 l 3.626,-2.156 c 0.539,1.127 1.078,2.352 1.519,3.577 -1.274,-0.343 -2.891,-0.98 -3.626,-1.617 -0.098,2.744 -0.294,3.087 -0.931,3.087 z m 11.515,0.784 c -0.343,-2.352 -1.813,-5.831 -3.381,-8.477 l -4.018,1.421 c -0.588,-0.882 -1.47,-1.911 -2.352,-2.842 h 9.555 v -4.606 h -21.217 v 4.606 h 7.889 l -1.421,0.833 c 0.588,0.539 1.176,1.176 1.715,1.862 h -3.822 v 5.292 c 0,4.116 0.784,5.439 4.704,5.439 h 2.744 c 2.548,0 3.773,-0.98 4.361,-4.459 0.294,0.98 0.49,1.862 0.588,2.646 z"
         id="logo_l"
         inkscape:connector-curvature="0" />
    </g>
  </g>
</svg>
